<?xml version="1.0" standalone="no"?>
<!DOCTYPE svg PUBLIC "-//W3C//DTD SVG 20010904//EN"
 "http://www.w3.org/TR/2001/REC-SVG-20010904/DTD/svg10.dtd">
<svg version="1.0" xmlns="http://www.w3.org/2000/svg"
 width="700.000000pt" height="700.000000pt" viewBox="0 0 700.000000 700.000000"
 preserveAspectRatio="xMidYMid meet">
<metadata>
Created by potrace 1.11, written by Peter Selinger 2001-2013
</metadata>
<g transform="translate(0.000000,700.000000) scale(0.100000,-0.100000)"
fill="#000000" stroke="none">
<path d="M3260 5505 c-310 -39 -628 -155 -888 -324 l-92 -60 -208 -26 c-291
-37 -684 -106 -705 -125 -5 -4 0 -84 11 -176 11 -93 19 -170 18 -170 0 -1
-176 -21 -391 -43 -649 -69 -680 -73 -678 -96 1 -11 34 -170 73 -353 38 -184
70 -342 70 -351 0 -13 -60 -47 -235 -132 l-235 -114 154 -120 c138 -106 154
-122 150 -145 -11 -60 -104 -693 -104 -706 0 -8 44 24 97 72 162 142 336 249
521 318 131 50 176 57 387 62 110 3 213 10 229 16 32 13 32 6 1 168 -8 47 -18
154 -22 238 -6 148 -6 152 14 152 19 0 20 -8 26 -157 19 -516 219 -973 588
-1344 615 -619 1576 -785 2373 -410 722 340 1176 1052 1176 1842 0 95 1 99 22
99 21 0 21 -1 15 -167 -4 -96 -15 -215 -27 -278 -11 -60 -20 -118 -20 -127 0
-33 81 -48 255 -47 181 1 237 -9 380 -66 178 -72 345 -177 500 -315 44 -40 81
-67 83 -62 2 8 -92 658 -103 708 -4 18 22 42 151 142 l155 121 -73 34 c-40 19
-148 71 -240 116 l-166 80 9 33 c31 113 161 699 156 704 -20 20 -460 88 -831
129 -126 14 -231 27 -233 29 -2 2 2 50 11 107 8 57 17 129 21 159 l6 55 -123
33 c-229 60 -428 97 -688 125 l-125 14 -112 67 c-272 163 -565 262 -878 296
-121 13 -346 11 -475 -5z m1070 -456 c448 -24 850 -77 1115 -147 l70 -19 -3
-54 c-2 -30 -13 -107 -26 -171 -17 -86 -19 -118 -11 -118 20 0 562 -58 650
-70 179 -23 408 -65 411 -75 4 -11 -170 -762 -178 -771 -3 -3 -70 7 -149 21
-585 104 -1186 167 -1889 196 -314 13 -1154 7 -1475 -10 -646 -36 -1125 -79
-1829 -167 -202 -25 -372 -42 -376 -37 -7 8 -160 728 -160 755 0 16 -7 15 684
89 203 21 371 41 373 43 2 1 -6 79 -17 172 -11 93 -20 174 -20 180 0 13 8 15
202 49 708 125 1784 180 2628 134z m766 -1415 c12 -84 -3 -362 -26 -469 -103
-486 -397 -876 -834 -1106 -672 -354 -1522 -172 -1991 426 -235 300 -344 617
-345 1003 0 144 1 152 20 152 18 0 19 -5 13 -97 -17 -284 71 -623 227 -878 93
-153 254 -331 395 -436 415 -311 955 -398 1445 -232 230 77 428 201 605 378
61 61 138 149 172 198 117 167 219 399 257 589 25 120 37 311 28 421 -7 88 -6
97 10 97 12 0 19 -12 24 -46z m-1455 15 c56 -19 79 -46 79 -96 l0 -43 -77 -1
c-43 0 -71 -3 -63 -6 86 -30 114 -58 122 -121 2 -18 24 12 86 122 l83 146 125
0 c68 0 124 -2 124 -4 0 -11 41 -355 46 -388 l6 -38 -106 0 -106 0 0 30 c0 29
-1 30 -50 30 -45 0 -51 -3 -65 -30 l-16 -30 -100 0 -100 0 16 30 15 30 -36
-25 c-54 -36 -108 -48 -207 -43 -67 3 -93 9 -115 25 -30 22 -54 80 -45 112 5
19 12 21 92 22 l86 0 -50 20 c-70 28 -88 52 -83 110 7 72 63 131 142 150 49
11 160 10 197 -2z m-571 -11 c0 -7 -12 -72 -27 -145 -25 -121 -26 -162 -4
-137 5 5 23 73 42 152 l32 142 103 0 c78 0 102 -3 99 -12 -2 -7 -13 -56 -25
-108 -12 -52 -30 -124 -40 -160 -34 -114 -106 -160 -252 -160 -89 0 -135 15
-166 55 -30 37 -28 73 10 243 l31 142 99 0 c70 0 98 -3 98 -12z m1346 -472
c21 -20 4 -66 -24 -65 -12 0 -11 3 6 9 12 5 22 12 22 16 0 3 -7 4 -15 0 -13
-4 -14 -2 -5 14 9 16 8 20 -5 20 -8 0 -15 -9 -15 -19 0 -11 -4 -22 -9 -25 -4
-3 -6 7 -4 22 3 23 2 24 -6 7 -7 -14 -10 -16 -10 -4 -2 31 39 47 65 25z
m-1368 -19 c8 -7 12 -5 12 7 0 17 43 22 88 10 24 -7 24 -12 6 -89 -3 -11 9 6
27 38 l32 57 57 0 c31 0 60 -3 63 -6 3 -4 50 -5 104 -4 180 5 403 4 409 -2 3
-4 0 -32 -6 -64 -10 -46 -10 -58 2 -65 20 -13 22 -12 43 43 26 67 61 93 125
93 37 0 54 -5 74 -24 l26 -24 0 22 c0 21 4 22 73 20 39 0 83 2 97 5 15 4 32 2
43 -6 16 -12 16 -18 -3 -108 -12 -52 -27 -98 -33 -102 -13 -8 -170 -9 -200 -1
-13 3 -16 11 -13 26 3 12 3 16 0 9 -18 -39 -130 -56 -172 -26 -20 14 -22 14
-22 0 0 -14 -25 -16 -189 -16 -118 0 -192 4 -196 10 -4 6 -1 35 6 65 12 54 6
83 -11 56 -4 -8 -13 -40 -19 -72 l-12 -59 -110 0 c-90 0 -109 3 -109 15 0 8
-4 15 -9 15 -5 0 -14 -7 -21 -15 -10 -12 -46 -15 -205 -15 l-192 0 15 66 c14
62 11 88 -7 68 -4 -5 -14 -37 -21 -72 l-13 -63 -51 3 c-57 3 -56 1 -41 91 6
40 5 47 -9 47 -12 0 -16 10 -16 38 0 21 3 42 7 45 10 10 356 -4 371 -16z m447
-295 c61 -17 171 -52 245 -77 l135 -46 305 -24 c168 -14 320 -25 338 -25 49 0
40 -26 -15 -44 -27 -8 -84 -24 -128 -36 -299 -79 -580 -234 -774 -427 -56 -57
-107 -103 -111 -103 -4 0 -28 35 -53 78 -189 322 -514 491 -944 492 -46 0 -83
4 -83 9 0 5 26 33 58 62 62 57 160 108 262 134 151 40 200 44 430 41 214 -4
230 -5 335 -34z"/>
<path d="M3058 4813 l-88 -4 0 -59 c0 -56 2 -60 23 -60 15 0 27 11 37 33 8 17
23 33 33 35 15 3 17 -6 17 -82 0 -85 0 -86 -25 -86 -18 0 -25 -5 -25 -20 0
-19 7 -20 100 -20 l100 0 0 25 c0 20 -5 25 -25 25 -25 0 -25 1 -25 80 0 65 3
80 15 80 9 0 23 -16 32 -35 12 -26 23 -35 41 -35 23 0 23 2 16 58 -3 31 -8 60
-11 65 -4 7 -27 7 -215 0z"/>
<path d="M3320 4797 c0 -20 5 -27 20 -27 18 0 20 -7 20 -85 0 -78 -2 -85 -20
-85 -15 0 -20 -7 -20 -25 0 -25 0 -25 95 -25 95 0 95 0 95 25 0 18 -5 25 -20
25 -16 0 -20 7 -20 30 0 29 1 30 50 30 49 0 50 -1 50 -30 0 -25 -4 -30 -25
-30 -20 0 -25 -5 -25 -25 l0 -25 100 0 100 0 0 25 c0 18 -5 25 -20 25 -18 0
-20 7 -20 80 0 73 2 80 20 80 15 0 20 7 20 25 0 24 -2 25 -63 25 -35 0 -125 3
-200 7 l-137 6 0 -26z m230 -37 c13 0 20 -7 20 -20 0 -17 -7 -20 -51 -20 -47
0 -50 2 -47 23 2 14 9 21 21 21 11 -1 17 6 18 20 0 21 0 21 9 -1 6 -13 18 -23
30 -23z"/>
<path d="M3770 4786 c0 -20 5 -26 21 -26 19 0 21 -4 15 -31 -3 -17 -6 -53 -6
-80 0 -41 -3 -49 -19 -49 -11 0 -21 -9 -24 -22 -4 -12 -5 -23 -4 -24 1 -1 66
-5 145 -8 l142 -7 0 38 c0 21 3 48 6 61 5 19 2 22 -19 22 -17 0 -28 -7 -32
-20 -10 -33 -35 -50 -71 -50 -31 0 -34 3 -34 30 0 34 19 41 27 10 3 -13 14
-20 29 -20 23 0 24 3 24 60 0 33 4 60 10 60 6 0 10 -9 10 -20 0 -15 7 -20 25
-20 24 0 25 3 25 55 l0 55 -67 0 c-38 0 -98 3 -135 7 l-68 6 0 -27z m185 -36
c18 -8 18 -9 2 -9 -11 -1 -27 -11 -38 -23 l-18 -23 -1 33 c0 34 14 40 55 22z"/>
<path d="M2802 4793 c-25 -3 -32 -8 -28 -20 3 -8 6 -18 6 -23 0 -5 10 -10 23
-12 19 -3 23 -11 28 -58 3 -30 2 -63 -3 -72 -10 -21 -49 -32 -83 -24 -27 7
-31 20 -38 104 -4 49 -3 52 19 52 19 0 24 5 24 25 l0 26 -92 -7 c-51 -4 -97
-10 -102 -15 -14 -12 1 -39 22 -39 21 0 32 -34 32 -97 0 -81 55 -120 154 -110
109 11 140 49 129 161 -6 63 -5 66 16 66 16 0 21 6 21 25 0 23 -3 25 -47 23
-27 0 -63 -3 -81 -5z"/>
<path d="M4170 4771 c0 -16 6 -21 25 -21 14 0 25 -5 25 -10 0 -6 -21 -40 -47
-75 -32 -43 -57 -67 -75 -71 -22 -5 -45 -40 -34 -51 2 -2 40 -6 85 -10 54 -4
81 -2 81 5 0 6 3 17 6 26 5 12 0 16 -20 16 -14 0 -26 5 -26 10 0 16 122 8 128
-7 2 -8 -5 -13 -17 -13 -16 0 -21 -6 -21 -25 0 -22 5 -25 33 -25 17 0 62 -3
100 -7 l67 -6 0 27 c0 16 -5 26 -15 26 -18 0 -27 17 -66 122 -16 46 -33 86
-37 90 -4 3 -49 10 -99 13 -90 7 -93 7 -93 -14z m110 -112 c0 -5 -10 -9 -21
-9 -18 0 -19 2 -9 15 12 15 30 12 30 -6z"/>
<path d="M2282 4755 c-59 -18 -108 -58 -122 -100 -10 -31 -9 -41 10 -80 27
-56 82 -85 161 -85 184 0 292 134 184 229 -57 50 -145 64 -233 36z m127 -60
c8 -7 17 -35 21 -60 9 -57 -9 -83 -62 -91 -30 -5 -41 -2 -62 19 -21 21 -26 36
-26 76 0 45 3 52 28 66 30 17 79 12 101 -10z"/>
<path d="M4580 4763 c-52 -20 -75 -77 -50 -124 8 -15 7 -19 -3 -19 -15 0 -27
-41 -27 -91 0 -27 3 -29 38 -29 20 0 60 -3 88 -6 68 -8 108 12 124 62 11 32
10 39 -9 65 -17 23 -19 29 -6 29 12 0 15 12 15 55 l0 55 -37 -1 c-21 -1 -56 1
-78 5 -22 3 -47 3 -55 -1z m99 -70 c12 -14 19 -28 16 -31 -6 -7 -94 19 -101
29 -10 16 7 29 36 29 19 0 36 -9 49 -27z m-1 -136 c3 -13 -4 -17 -31 -17 -49
0 -66 8 -82 41 -8 15 -15 30 -15 32 0 2 28 -6 62 -17 40 -14 64 -28 66 -39z"/>
<path d="M4780 4720 c-20 -79 -22 -90 -12 -90 6 0 17 -3 26 -6 10 -4 20 5 30
24 14 26 51 51 61 40 2 -1 -1 -26 -6 -53 -5 -28 -11 -65 -14 -82 -5 -29 -10
-33 -35 -33 -25 0 -30 -4 -30 -24 0 -20 6 -25 43 -30 115 -15 167 -18 167 -8
0 6 3 17 6 26 5 12 0 16 -20 16 -20 0 -26 5 -26 22 0 26 21 151 26 157 9 10
44 -34 44 -55 0 -17 7 -25 25 -30 14 -4 27 -5 29 -3 2 2 6 32 10 67 5 48 4 62
-6 62 -7 1 -79 9 -161 18 l-147 18 -10 -36z"/>
<path d="M2067 4723 c-4 -3 -32 -7 -63 -7 -50 -1 -59 -4 -85 -34 -60 -67 -24
-126 85 -137 72 -8 90 -20 61 -42 -32 -22 -70 -16 -103 18 -39 40 -68 34 -58
-12 3 -18 6 -42 6 -55 0 -19 5 -24 25 -24 14 0 25 5 25 10 0 7 13 8 35 4 44
-8 118 18 140 49 22 32 19 74 -10 102 -13 14 -20 25 -15 25 11 0 13 33 4 79
-6 29 -30 42 -47 24z m-12 -73 c10 -11 16 -22 14 -25 -3 -2 -29 -2 -57 2 -48
5 -64 18 -45 36 14 15 70 6 88 -13z"/>
<path d="M3783 4310 c-42 -25 -63 -68 -63 -126 0 -41 5 -51 39 -85 32 -33 45
-39 80 -39 77 0 125 41 137 118 17 108 -101 189 -193 132z m95 -32 c17 -21 23
-101 9 -138 -14 -40 -45 -51 -71 -25 -21 22 -22 122 0 153 17 24 46 29 62 10z"/>
<path d="M3133 4313 c-28 -5 -30 -33 -3 -40 18 -5 20 -14 20 -89 0 -68 -3 -84
-15 -84 -8 0 -15 -9 -15 -20 0 -18 7 -20 83 -20 45 0 99 3 120 6 l37 7 0 53
c0 46 -3 54 -19 54 -13 0 -20 -9 -25 -30 -4 -20 -14 -34 -31 -40 -45 -17 -55
-13 -55 25 0 38 15 47 25 15 4 -11 15 -20 26 -20 18 0 20 6 17 62 -2 50 -6 63
-20 66 -12 2 -22 -6 -30 -25 l-12 -28 -4 33 c-4 42 -1 46 37 37 21 -4 32 -15
40 -36 5 -16 17 -29 25 -29 13 0 16 12 16 55 l0 55 -97 -1 c-54 -1 -108 -4
-120 -6z"/>
<path d="M3522 4300 c-61 -37 -77 -123 -35 -187 38 -58 133 -72 182 -25 38 34
52 82 25 82 -11 -1 -28 -15 -39 -33 -26 -41 -66 -48 -89 -15 -22 31 -21 110 2
138 27 33 67 21 86 -25 8 -19 22 -35 30 -35 13 0 16 12 16 58 l0 59 -73 1
c-56 1 -79 -3 -105 -18z"/>
<path d="M4000 4300 c0 -11 6 -20 14 -20 24 0 28 -17 21 -97 -6 -62 -11 -76
-26 -80 -11 -3 -19 -14 -19 -24 0 -16 8 -19 50 -20 28 -1 56 -2 62 -3 23 -2
21 35 -1 41 -18 5 -21 13 -21 57 l0 51 42 -70 c22 -38 42 -72 44 -73 1 -2 21
-6 43 -9 l41 -6 0 96 c0 104 5 127 26 127 8 0 14 9 14 20 0 18 -7 20 -60 20
-65 0 -79 -15 -39 -41 16 -11 20 -23 17 -54 l-3 -39 -55 72 c-54 72 -55 72
-102 72 -41 0 -48 -3 -48 -20z"/>
<path d="M2948 4303 l-68 -4 0 -54 c0 -65 22 -76 40 -20 19 58 30 40 30 -50 0
-69 -3 -85 -15 -85 -8 0 -15 -7 -15 -15 0 -12 14 -15 70 -15 63 0 70 2 70 20
0 13 -7 20 -20 20 -18 0 -20 7 -20 80 0 84 13 104 31 50 6 -16 18 -30 26 -30
11 0 13 12 11 53 l-3 52 -35 1 c-19 0 -65 -1 -102 -3z"/>
<path d="M4300 4295 c0 -9 7 -18 15 -21 11 -5 15 -23 15 -73 0 -80 -8 -111
-26 -111 -8 0 -14 -9 -14 -20 0 -18 7 -20 55 -20 30 0 58 -1 62 -2 4 -2 9 5
11 15 2 10 -3 17 -12 17 -12 0 -16 10 -16 41 0 24 4 38 10 34 6 -3 10 -15 10
-26 0 -12 7 -19 20 -19 18 0 20 7 21 63 0 47 2 57 9 40 13 -33 30 -28 30 7 0
24 4 30 21 30 15 0 19 -4 15 -16 -3 -9 -6 -47 -6 -85 0 -62 -2 -69 -20 -69
-25 0 -27 -36 -2 -44 9 -3 91 -8 182 -12 91 -3 169 -8 173 -11 5 -3 11 5 14
16 l6 22 14 -21 c11 -16 24 -21 52 -19 20 1 43 -1 51 -4 18 -7 221 -30 225
-25 1 2 6 27 10 56 6 46 5 52 -12 52 -10 0 -26 -14 -35 -30 -13 -23 -24 -30
-48 -30 -28 0 -30 3 -30 35 0 41 15 47 24 9 5 -17 12 -24 24 -22 13 2 18 15
20 53 3 50 22 90 22 47 0 -15 6 -22 20 -22 18 0 20 7 20 54 l0 53 -62 7 c-35
4 -84 9 -110 13 -44 5 -48 4 -48 -16 0 -12 6 -21 16 -21 16 0 15 -38 -2 -147
-5 -36 -24 -45 -24 -13 0 14 -7 20 -23 20 -16 0 -28 9 -36 27 -7 16 -9 29 -3
31 46 15 60 61 30 96 -18 21 -37 28 -93 36 -113 16 -145 14 -145 -10 0 -12 7
-20 16 -20 15 0 16 -9 10 -61 -3 -34 -6 -73 -6 -85 0 -15 -6 -24 -15 -24 -10
0 -15 11 -15 35 0 38 -25 50 -37 18 -11 -33 -36 -53 -65 -53 -26 0 -28 3 -28
36 0 39 23 44 28 6 2 -14 11 -22 23 -22 17 0 19 7 19 65 0 57 -2 65 -19 65
-10 0 -22 -10 -26 -22 -7 -21 -8 -20 -12 10 -5 41 -2 45 31 36 18 -4 32 -18
41 -40 23 -55 45 -44 45 20 l0 54 -77 6 c-43 4 -125 11 -183 16 -143 14 -160
13 -160 -5z m136 -40 c16 -12 16 -14 3 -15 -9 0 -24 -10 -32 -22 l-16 -23 0
31 c-1 46 12 54 45 29z m452 -34 c23 -14 10 -46 -21 -49 -28 -3 -34 9 -21 42
7 18 22 20 42 7z m278 -27 c19 -15 18 -15 -3 -11 -13 3 -23 2 -23 -2 0 -4 -7
-16 -15 -27 -13 -18 -14 -17 -15 19 0 29 4 37 18 37 10 0 27 -7 38 -16z m-296
-116 c0 -11 -7 -18 -20 -18 -15 0 -20 7 -20 28 0 16 3 32 7 36 10 9 33 -23 33
-46z"/>
<path d="M2645 4279 c-8 -12 -8 -12 21 -25 21 -9 21 -9 -13 -91 -20 -48 -41
-83 -49 -83 -8 0 -14 -9 -14 -20 0 -17 7 -20 44 -20 57 0 76 8 76 31 0 13 -7
19 -21 19 -38 0 -13 25 28 28 29 2 42 -1 46 -12 4 -10 1 -16 -8 -16 -8 0 -15
-9 -15 -20 0 -18 7 -20 69 -20 76 0 93 10 62 37 -12 9 -35 59 -52 110 l-31 93
-68 0 c-38 0 -72 -5 -75 -11z m85 -110 c0 -5 -7 -9 -15 -9 -15 0 -20 12 -9 23
8 8 24 -1 24 -14z"/>
<path d="M2478 4273 c-48 -3 -58 -7 -58 -22 0 -10 9 -21 19 -24 16 -4 20 -16
23 -77 3 -64 1 -74 -15 -78 -10 -3 -17 -12 -15 -21 2 -9 7 -15 11 -13 4 1 36
2 72 2 58 0 65 2 65 20 0 13 -7 20 -20 20 -16 0 -20 7 -20 34 0 18 -3 54 -6
80 -6 43 -5 46 16 46 16 0 20 4 16 16 -3 9 -6 18 -6 20 0 2 -6 3 -12 2 -7 -1
-39 -3 -70 -5z"/>
<path d="M2265 4261 c-50 -9 -95 -64 -95 -116 0 -18 -5 -25 -20 -25 -15 0 -20
-7 -20 -24 0 -24 -32 -56 -56 -56 -6 0 -14 14 -16 30 -5 31 8 41 18 15 4 -8
12 -15 20 -15 10 0 14 14 14 53 0 34 3 47 9 38 5 -8 15 -11 23 -8 11 4 13 16
9 49 l-6 43 -50 -2 c-28 -1 -73 -5 -101 -8 -44 -5 -51 -9 -47 -25 3 -10 11
-16 18 -14 8 4 14 -13 19 -57 9 -92 8 -109 -9 -109 -8 0 -15 -7 -15 -16 0 -14
11 -16 98 -9 53 4 100 9 105 12 4 2 7 25 7 51 l1 47 13 -30 c25 -59 98 -82
162 -53 22 10 28 10 32 0 2 -6 10 -12 18 -12 10 0 14 14 14 50 0 28 5 50 10
50 6 0 10 7 10 15 0 12 -14 15 -65 15 -58 0 -65 -2 -65 -20 0 -14 7 -20 21
-20 15 0 20 -5 17 -21 -4 -27 -40 -42 -62 -26 -18 14 -32 93 -22 131 12 47 66
44 92 -5 20 -40 44 -38 44 4 0 65 -7 73 -59 73 -26 -1 -56 -3 -66 -5z m-169
-66 c18 -14 18 -14 -3 -8 -19 4 -23 1 -23 -16 0 -11 -4 -21 -10 -21 -11 0 -14
43 -3 53 9 10 17 9 39 -8z"/>
<path d="M1753 4223 c-25 -5 -32 -33 -9 -33 14 0 26 -60 26 -131 0 -29 -4 -39
-16 -39 -9 0 -14 -7 -12 -17 3 -16 14 -18 78 -15 129 5 130 6 130 63 0 41 -3
49 -19 49 -12 0 -21 -11 -27 -32 -7 -25 -16 -34 -35 -36 -24 -3 -27 1 -33 44
-10 79 -8 114 9 114 8 0 15 9 15 20 0 17 -6 20 -42 19 -24 -1 -53 -4 -65 -6z"/>
<path d="M5258 4212 c-4 -14 0 -22 13 -25 17 -5 18 -12 13 -69 -8 -71 -18 -98
-39 -98 -8 0 -15 -9 -15 -19 0 -16 9 -20 56 -23 41 -2 58 1 62 11 3 7 -2 18
-11 23 -12 6 -17 22 -16 56 l1 47 34 -72 c31 -65 37 -73 70 -79 19 -3 37 -4
39 -2 3 2 8 44 11 93 6 67 11 92 26 104 36 31 17 51 -47 51 -40 0 -55 -18 -31
-36 12 -9 16 -23 14 -50 l-3 -38 -44 67 c-24 37 -49 67 -56 67 -7 0 -26 3 -42
6 -25 5 -31 2 -35 -14z"/>
<path d="M1553 4203 c-35 -3 -43 -8 -43 -24 0 -10 7 -19 15 -19 9 0 15 -10 16
-22 0 -13 4 -49 8 -82 6 -44 4 -59 -6 -63 -7 -3 -13 -13 -13 -22 0 -17 26 -16
198 9 1 0 2 23 2 50 0 42 -3 50 -19 50 -13 0 -20 -9 -25 -30 -6 -30 -43 -56
-58 -41 -14 12 -22 161 -9 161 6 0 11 9 11 20 0 13 -6 19 -17 18 -10 -1 -37
-3 -60 -5z"/>
<path d="M1324 4180 c-78 -39 -95 -135 -35 -202 22 -25 37 -31 77 -35 59 -5
90 10 121 56 44 64 19 150 -51 182 -52 24 -62 23 -112 -1z m80 -39 c22 -24 32
-111 17 -139 -15 -28 -57 -29 -71 -2 -6 11 -14 43 -17 70 -5 40 -2 54 12 70
23 25 37 25 59 1z"/>
<path d="M5566 4179 c-86 -68 -68 -204 31 -239 38 -13 46 -12 78 3 42 20 75
79 48 85 -9 2 -25 -7 -37 -21 -30 -36 -53 -40 -77 -16 -18 18 -21 29 -16 72 7
58 30 97 57 97 23 0 50 -36 50 -67 0 -16 6 -23 19 -23 14 0 20 10 25 46 9 71
9 74 -21 74 -16 0 -51 3 -78 6 -42 5 -55 2 -79 -17z"/>
<path d="M5760 4155 c0 -7 6 -18 14 -22 11 -6 13 -18 5 -58 -4 -27 -11 -64
-14 -81 -4 -20 -13 -34 -25 -37 -11 -3 -20 -12 -20 -20 0 -10 25 -19 88 -31
48 -10 96 -20 108 -22 18 -5 22 1 30 50 9 46 8 56 -4 61 -8 3 -16 4 -16 3 -29
-49 -39 -58 -66 -58 -31 0 -34 7 -24 47 7 26 24 21 24 -7 0 -21 26 -34 33 -16
3 7 8 38 12 69 6 47 5 57 -8 57 -8 0 -22 -10 -30 -22 l-16 -23 0 25 c-1 14 3
30 7 37 13 21 56 -8 62 -42 6 -33 40 -49 40 -18 0 10 3 34 6 53 l6 36 -89 17
c-109 21 -123 21 -123 2z"/>
<path d="M1174 4149 c-3 -6 -17 -8 -29 -5 -39 10 -85 -5 -121 -39 -27 -26 -34
-40 -34 -71 0 -51 17 -83 59 -111 77 -52 190 -10 191 70 0 41 -26 33 -47 -14
-7 -16 -23 -29 -40 -33 -23 -6 -32 -3 -51 19 -19 22 -22 37 -20 79 3 49 4 51
35 54 25 3 36 -3 54 -27 22 -30 43 -39 52 -23 3 4 0 31 -5 60 -10 50 -28 67
-44 41z"/>
<path d="M3437 3627 c-89 -29 -145 -113 -115 -175 11 -22 30 -33 100 -57 47
-16 90 -33 94 -37 12 -13 -27 -48 -53 -48 -16 0 -27 7 -30 20 -5 18 -14 20
-84 20 -78 0 -79 0 -79 -26 0 -70 51 -99 175 -98 115 1 173 25 210 89 51 86
22 136 -96 169 -73 21 -90 31 -82 52 7 19 69 19 77 -1 4 -11 22 -15 76 -15
l71 0 -3 37 c-5 57 -41 77 -141 80 -45 1 -99 -3 -120 -10z"/>
<path d="M3842 3563 c-99 -171 -171 -299 -177 -315 -6 -16 1 -18 68 -18 l75 0
21 35 c20 34 22 35 80 35 l60 0 3 -32 3 -33 87 -3 88 -3 -5 28 c-3 15 -12 91
-20 168 -9 77 -18 155 -21 173 l-5 32 -109 0 -109 0 -39 -67z m126 -121 c-3
-34 -6 -37 -35 -40 -18 -2 -33 0 -33 5 0 4 12 37 27 72 l27 64 9 -33 c4 -17 7
-48 5 -68z"/>
<path d="M3500 3532 c0 -5 9 -12 21 -15 13 -3 19 -1 16 6 -5 15 -37 22 -37 9z"/>
<path d="M3450 3349 c0 -15 5 -20 23 -17 27 4 26 19 -2 30 -17 6 -21 3 -21
-13z"/>
<path d="M2850 3473 c-37 -173 -36 -183 23 -227 24 -18 42 -21 120 -21 78 1
100 5 142 25 27 14 57 36 67 50 15 21 60 182 83 298 l7 32 -84 0 -83 0 -33
-139 c-18 -76 -38 -143 -44 -149 -16 -16 -45 -15 -51 1 -3 7 8 71 24 142 16
72 29 133 29 138 0 4 -37 7 -83 7 l-84 0 -33 -157z"/>
<path d="M2680 3126 c0 -15 7 -26 19 -29 20 -5 20 -7 -4 -114 -5 -21 -2 -23
33 -23 l39 0 14 67 c12 58 17 68 39 73 16 4 26 14 28 28 3 21 0 22 -82 22 -84
0 -86 -1 -86 -24z"/>
<path d="M2865 3138 c-4 -13 -35 -167 -35 -175 0 -2 17 -3 37 -1 30 2 38 8 43
27 9 37 30 38 30 2 0 -29 3 -31 34 -31 31 0 34 3 38 35 2 19 1 40 -3 47 -4 6
2 23 12 38 11 14 17 33 14 42 -10 26 -162 40 -170 16z m93 -50 c-6 -18 -28
-21 -28 -4 0 9 7 16 16 16 9 0 14 -5 12 -12z"/>
<path d="M3065 3128 c-26 -113 -35 -154 -35 -160 0 -5 17 -8 38 -8 l37 0 18
84 c9 46 17 89 17 95 0 6 -16 11 -35 11 -28 0 -36 -4 -40 -22z"/>
<path d="M3167 3061 c-26 -48 -47 -91 -47 -95 0 -14 68 -6 74 9 3 8 17 15 31
15 16 0 25 -6 25 -15 0 -11 11 -15 41 -15 l41 0 -6 68 c-12 124 -11 122 -64
122 l-47 0 -48 -89z m79 -29 c-12 -12 -18 8 -10 35 l8 28 4 -28 c2 -16 1 -31
-2 -35z"/>
<path d="M3357 3143 c-15 -15 -7 -43 13 -43 23 0 23 3 6 -77 l-14 -63 39 0 38
0 11 58 c16 81 17 82 45 82 20 0 25 5 25 25 0 25 -1 25 -78 25 -43 0 -82 -3
-85 -7z"/>
<path d="M3535 3128 c-29 -133 -35 -160 -35 -164 0 -2 18 -4 40 -4 33 0 40 3
40 19 0 31 11 51 27 51 12 0 14 -8 9 -36 l-7 -35 38 3 38 3 17 75 c24 110 24
110 -16 110 -30 0 -36 -4 -46 -35 -6 -19 -16 -35 -21 -35 -5 0 -9 16 -9 35 0
33 -2 35 -35 35 -28 0 -36 -4 -40 -22z"/>
<path d="M3735 3073 c-9 -43 -19 -86 -22 -95 -4 -16 4 -18 71 -18 74 0 76 1
76 25 0 21 -5 25 -31 25 -30 0 -31 1 -25 33 22 108 22 107 -17 107 l-36 0 -16
-77z"/>
<path d="M3931 3125 c-50 -43 -63 -124 -25 -156 8 -7 36 -12 62 -11 40 0 51 5
79 36 27 29 33 44 33 79 0 55 -22 77 -78 77 -29 0 -49 -7 -71 -25z m71 -60
c-4 -37 -20 -67 -33 -60 -12 8 -12 37 1 70 13 34 36 27 32 -10z"/>
<path d="M4106 3068 c-21 -109 -21 -110 11 -106 23 3 29 10 38 48 8 34 13 41
18 27 4 -10 7 -32 7 -48 0 -28 2 -29 49 -29 l48 0 17 83 c21 108 21 109 -11
105 -23 -3 -29 -10 -39 -48 -12 -46 -21 -41 -26 15 -3 28 -6 30 -49 33 l-46 3
-17 -83z"/>
<path d="M3348 3034 c5 -53 8 -53 20 4 9 36 8 42 -7 42 -13 0 -15 -8 -13 -46z"/>
<path d="M2980 2864 c-174 -20 -308 -55 -400 -106 -57 -32 -120 -79 -120 -89
0 -3 71 -9 158 -12 122 -4 178 -11 249 -30 88 -23 97 -24 175 -11 191 31 673
81 816 85 34 1 -301 112 -423 140 -68 16 -131 22 -255 24 -91 2 -181 1 -200
-1z m118 -70 c12 3 32 9 43 12 l22 6 -22 -30 c-26 -37 -26 -47 -1 -79 11 -15
19 -27 17 -29 -2 -2 -20 2 -41 8 -37 12 -39 11 -66 -22 l-29 -35 -3 45 c-3 40
-6 45 -35 54 -43 12 -42 23 2 32 34 6 35 8 35 53 l1 46 28 -34 c21 -26 33 -32
49 -27z m280 2 c24 7 27 2 12 -26 -7 -13 -6 -21 5 -30 23 -19 18 -31 -9 -20
-19 7 -28 4 -42 -12 l-19 -20 -5 23 c-3 13 -17 29 -30 36 l-24 12 27 10 c20 8
27 17 27 38 l0 28 18 -22 c12 -16 23 -21 40 -17z m-534 -16 c25 9 37 -2 16
-15 -15 -9 -12 -36 8 -58 17 -19 16 -19 -17 -12 -29 6 -37 4 -52 -16 l-19 -24
0 31 c0 26 -5 33 -32 41 l-33 10 33 13 c25 9 32 18 32 38 l1 27 18 -23 c16
-18 24 -21 45 -12z"/>
<path d="M3785 2663 c-361 -31 -667 -66 -730 -82 l-30 -8 55 -28 c30 -15 88
-52 129 -82 49 -35 80 -51 90 -47 142 60 526 166 781 215 l125 24 -60 6 c-62
7 -291 8 -360 2z"/>
<path d="M4275 2645 c-295 -54 -946 -243 -945 -274 0 -3 22 -33 48 -67 26 -33
65 -92 87 -130 l39 -70 65 69 c179 189 501 369 804 448 61 16 83 26 70 30 -26
11 -89 9 -168 -6z"/>
</g>
</svg>
